<?xml version="1.0" encoding="UTF-8"?>
<!DOCTYPE svg PUBLIC "-//W3C//DTD SVG 1.0//EN" "http://www.w3.org/TR/2001/REC-SVG-20010904/DTD/svg10.dtd">
<!-- Creator: CorelDRAW X8 -->
<svg xmlns="http://www.w3.org/2000/svg" xml:space="preserve" width="95px" height="95px" version="1.0" style="shape-rendering:geometricPrecision; text-rendering:geometricPrecision; image-rendering:optimizeQuality; fill-rule:evenodd; clip-rule:evenodd"
viewBox="0 0 95000 95000"
 xmlns:xlink="http://www.w3.org/1999/xlink">
 <defs>
  <style type="text/css">
   <![CDATA[
    .fil0 {fill:#424242}
   ]]>
  </style>
 </defs>
 <g id="Warstwa_x0020_1">
  <metadata id="CorelCorpID_0Corel-Layer"/>
  <path class="fil0" d="M49631 21866c6150,347 11901,2195 16897,5173l-2413 4185c-588,1024 -241,2360 789,2960l0 0c1042,601 2366,242 2967,-794l2253 -3914c4521,3467 8223,7951 10765,13107l-3272 1890c-1035,600 -1394,1924 -794,2954l0 0c600,1042 1924,1395 2959,801l2802 -1619c1371,3879 2119,8052 2119,12401 0,1077 -47,2137 -135,3190l-2525 0c-1195,0 -2166,971 -2166,2161l0 0c0,1200 971,2172 2166,2172l1895 0c-470,2283 -1141,4490 -2013,6603l-68850 0c-860,-2089 -1531,-4273 -2002,-6534l1884 0c1194,0 2166,-971 2166,-2159l0 0c0,-1201 -972,-2172 -2166,-2172l-2519 0c-95,-1077 -141,-2160 -141,-3261 0,-4319 735,-8475 2095,-12336l2790 1613c1036,594 2360,241 2960,-789l0 0c600,-1042 241,-2366 -795,-2966l-3266 -1890c2536,-5161 6227,-9646 10741,-13125l2248 3909c595,1024 1925,1395 2955,793l0 0c1042,-600 1389,-1929 801,-2959l-2413 -4185c4990,-2985 10735,-4844 16885,-5203l0 4984c0,1178 971,2167 2161,2167l0 0c1201,0 2172,-971 2172,-2167l0 -4990zm19558 20853c935,929 994,2537 29,3419l-19806 17976c-764,694 -1535,671 -1912,294 -377,-377 -436,-1101 294,-1914l17987 -19746c906,-994 2495,-947 3408,-29z"/>
 </g>
</svg>
