<?xml version="1.0" encoding="UTF-8"?>
<!DOCTYPE svg PUBLIC "-//W3C//DTD SVG 1.0//EN" "http://www.w3.org/TR/2001/REC-SVG-20010904/DTD/svg10.dtd">
<!-- Creator: CorelDRAW X8 -->
<svg xmlns="http://www.w3.org/2000/svg" xml:space="preserve" width="95px" height="95px" version="1.0" style="shape-rendering:geometricPrecision; text-rendering:geometricPrecision; image-rendering:optimizeQuality; fill-rule:evenodd; clip-rule:evenodd"
viewBox="0 0 95000 95000"
 xmlns:xlink="http://www.w3.org/1999/xlink">
 <defs>
  <style type="text/css">
   <![CDATA[
    .fil0 {fill:#424242}
   ]]>
  </style>
 </defs>
 <g id="Warstwa_x0020_1">
  <metadata id="CorelCorpID_0Corel-Layer"/>
  <path class="fil0" d="M47499 47068c6855,0 12416,-6767 12416,-15087 0,-8331 -1824,-15087 -12416,-15087 -10594,0 -12411,6756 -12411,15081 0,8326 5554,15093 12411,15093zm24467 21938c-247,-14509 -2227,-18634 -17365,-21259 0,0 -2114,2603 -7102,2603 -4961,0 -7098,-2603 -7098,-2603 -14981,2597 -17079,6665 -17360,20792 -22,1145 -27,1207 -33,1083 0,241 6,708 6,1516 0,0 3607,6968 24485,6968 20876,0 24489,-6968 24489,-6968 0,-522 0,-871 0,-1128 -5,78 -5,-84 -22,-1004z"/>
 </g>
</svg>
